<svg xmlns="http://www.w3.org/2000/svg" xmlns:xlink="http://www.w3.org/1999/xlink" fill-rule="evenodd" viewBox="0.62 639.89 761.36 202"> <g> <path style="stroke:none; fill:#FFFFFF" d="M 731 774.89L 761.987 764.89L 701 803.874L 705 752.948L 650 803.874L 658 752.948L 601.156 803.874L 609 752.948L 554 803.874L 560 752.948L 504.44 803.874L 512 752.948L 456 803.874L 461 752.948L 408 803.874L 416 752.948L 355 803.874L 366.615 752.948L 309.19 803.874L 319 752.948L 260 803.874L 268 752.948L 209 803.874L 222 752.948L 165.055 803.874L 173 752.948L 117 803.874L 124 752.948L 65 803.874L 77 752.948L 17 803.874L 30 711.89L 0.6224 715.89L 72 679.228L 61 731.276L 124 679.228L 112 731.276L 167.055 679.228L 158 731.276L 217.159 679.228L 208 731.276L 265 679.228L 255 731.276L 312.19 679.228L 308.19 731.276L 361.615 679.228L 353 731.276L 409 679.228L 402 731.276L 457 679.228L 447 731.276L 507.44 679.228L 497 731.276L 556 679.228L 549 731.276L 600.156 679.228L 593 731.276L 651 679.228L 643 731.276L 697 679.228L 691 731.276L 747 679.228L 731 774.89zM 348 669.89L 355 655.89L 346 655.89L 361 639.89L 360 649.89L 369 651.89L 348 669.89zM 203 669.89L 210 655.89L 201 655.89L 216 639.89L 215 649.89L 224 651.89L 203 669.89zM 416 811.89L 415 821.89L 424 823.89L 403 841.89L 410 827.89L 401 827.89L 416 811.89zM 560 811.89L 559 821.89L 568 823.89L 547 841.89L 554 827.89L 545 827.89L 560 811.89z"></path> <path style="stroke:none; fill:#FFFFFF" d="M 216 639.89L 201 655.89L 210 655.89L 203 669.89L 224 651.89L 215 649.89L 216 639.89z"></path> <path style="stroke:none; fill:#FFFFFF" d="M 361 639.89L 346 655.89L 355 655.89L 348 669.89L 369 651.89L 360 649.89L 361 639.89z"></path> <path style="stroke:none; fill:#FFFFFF" d="M 416 811.89L 401 827.89L 410 827.89L 403 841.89L 424 823.89L 415 821.89L 416 811.89z"></path> <path style="stroke:none; fill:#FFFFFF" d="M 560 811.89L 545 827.89L 554 827.89L 547 841.89L 568 823.89L 559 821.89L 560 811.89z"></path> </g> </svg>